<mxfile host="app.diagrams.net" agent="Mozilla/5.0 (Windows NT 10.0; Win64; x64) AppleWebKit/537.36 (KHTML, like Gecko) Chrome/140.0.0.0 Safari/537.36 Edg/140.0.0.0" version="28.2.3">
  <diagram name="Página-1" id="eVjOA9NVYWprm9Gg8uva">
    <mxGraphModel dx="1418" dy="786" grid="1" gridSize="10" guides="1" tooltips="1" connect="1" arrows="1" fold="1" page="1" pageScale="1" pageWidth="827" pageHeight="1169" math="0" shadow="0">
      <root>
        <mxCell id="0" />
        <mxCell id="1" parent="0" />
        <mxCell id="6v0lxNewYs-4yo1k02-e-6" value="" style="edgeStyle=orthogonalEdgeStyle;rounded=0;orthogonalLoop=1;jettySize=auto;html=1;" edge="1" parent="1" source="6v0lxNewYs-4yo1k02-e-1" target="6v0lxNewYs-4yo1k02-e-3">
          <mxGeometry relative="1" as="geometry" />
        </mxCell>
        <mxCell id="6v0lxNewYs-4yo1k02-e-1" value="Início&amp;nbsp;" style="ellipse;whiteSpace=wrap;html=1;fillColor=#e1d5e7;strokeColor=#9673a6;" vertex="1" parent="1">
          <mxGeometry x="354" y="120" width="120" height="80" as="geometry" />
        </mxCell>
        <mxCell id="6v0lxNewYs-4yo1k02-e-2" value="Fim" style="ellipse;whiteSpace=wrap;html=1;fillColor=#fad9d5;strokeColor=#ae4132;" vertex="1" parent="1">
          <mxGeometry x="130" y="670" width="120" height="80" as="geometry" />
        </mxCell>
        <mxCell id="6v0lxNewYs-4yo1k02-e-7" value="" style="edgeStyle=orthogonalEdgeStyle;rounded=0;orthogonalLoop=1;jettySize=auto;html=1;" edge="1" parent="1" source="6v0lxNewYs-4yo1k02-e-3" target="6v0lxNewYs-4yo1k02-e-5">
          <mxGeometry relative="1" as="geometry" />
        </mxCell>
        <mxCell id="6v0lxNewYs-4yo1k02-e-3" value="Ler P1,P2,P3,P4" style="shape=parallelogram;perimeter=parallelogramPerimeter;whiteSpace=wrap;html=1;fixedSize=1;fillColor=#fff2cc;strokeColor=#d6b656;" vertex="1" parent="1">
          <mxGeometry x="110" y="190" width="120" height="60" as="geometry" />
        </mxCell>
        <mxCell id="6v0lxNewYs-4yo1k02-e-9" value="" style="edgeStyle=orthogonalEdgeStyle;rounded=0;orthogonalLoop=1;jettySize=auto;html=1;" edge="1" parent="1" source="6v0lxNewYs-4yo1k02-e-4" target="6v0lxNewYs-4yo1k02-e-2">
          <mxGeometry relative="1" as="geometry" />
        </mxCell>
        <mxCell id="6v0lxNewYs-4yo1k02-e-4" value="Escrever Média" style="shape=parallelogram;perimeter=parallelogramPerimeter;whiteSpace=wrap;html=1;fixedSize=1;fillColor=#0050ef;fontColor=#ffffff;strokeColor=#001DBC;" vertex="1" parent="1">
          <mxGeometry x="510" y="490" width="120" height="60" as="geometry" />
        </mxCell>
        <mxCell id="6v0lxNewYs-4yo1k02-e-8" value="" style="edgeStyle=orthogonalEdgeStyle;rounded=0;orthogonalLoop=1;jettySize=auto;html=1;" edge="1" parent="1" source="6v0lxNewYs-4yo1k02-e-5" target="6v0lxNewYs-4yo1k02-e-4">
          <mxGeometry relative="1" as="geometry" />
        </mxCell>
        <mxCell id="6v0lxNewYs-4yo1k02-e-5" value="Média=(P1+P2+P3+P4)/4" style="rounded=0;whiteSpace=wrap;html=1;fillColor=#6a00ff;fontColor=#ffffff;strokeColor=#3700CC;" vertex="1" parent="1">
          <mxGeometry x="630" y="280" width="120" height="60" as="geometry" />
        </mxCell>
      </root>
    </mxGraphModel>
  </diagram>
</mxfile>
